<svg width="183" height="32" viewBox="0 0 183 32" fill="none" xmlns="http://www.w3.org/2000/svg">
<path d="M44.5382 9.10929H47.9515L51.5566 17.9047H51.7101L55.3152 9.10929H58.7285V22.2002H56.0439V13.6796H55.9352L52.5474 22.1363H50.7193L47.3315 13.6476H47.2228V22.2002H44.5382V9.10929ZM63.7766 9.10929V22.2002H61.0089V9.10929H63.7766ZM73.1554 12.8742C73.1042 12.3586 72.8848 11.958 72.497 11.6725C72.1092 11.387 71.5829 11.2442 70.9181 11.2442C70.4664 11.2442 70.085 11.3081 69.774 11.436C69.4629 11.5596 69.2243 11.7322 69.0581 11.9537C68.8961 12.1753 68.8152 12.4268 68.8152 12.708C68.8066 12.9424 68.8556 13.1469 68.9622 13.3216C69.073 13.4964 69.2243 13.6476 69.416 13.7755C69.6078 13.8991 69.8294 14.0077 70.0808 14.1015C70.3322 14.191 70.6007 14.2677 70.8862 14.3316L72.0623 14.6128C72.6333 14.7407 73.1575 14.9111 73.6348 15.1242C74.112 15.3373 74.5254 15.5993 74.8748 15.9104C75.2243 16.2215 75.4949 16.588 75.6866 17.0099C75.8826 17.4317 75.9828 17.9154 75.987 18.4608C75.9828 19.262 75.7782 19.9566 75.3734 20.5447C74.9728 21.1285 74.3933 21.5823 73.6348 21.9062C72.8805 22.2258 71.9707 22.3856 70.9054 22.3856C69.8485 22.3856 68.9281 22.2236 68.144 21.8998C67.3642 21.5759 66.7548 21.0965 66.3159 20.4616C65.8812 19.8224 65.6532 19.0319 65.6319 18.0901H68.3102C68.34 18.529 68.4657 18.8955 68.6873 19.1895C68.9132 19.4793 69.2136 19.6988 69.5886 19.8479C69.9679 19.9928 70.3961 20.0653 70.8734 20.0653C71.3422 20.0653 71.7491 19.9971 72.0943 19.8607C72.4437 19.7243 72.7143 19.5347 72.9061 19.2918C73.0978 19.0489 73.1937 18.7698 73.1937 18.4545C73.1937 18.1604 73.1064 17.9133 72.9316 17.713C72.7612 17.5127 72.5098 17.3422 72.1774 17.2016C71.8493 17.061 71.4466 16.9331 70.9693 16.8181L69.5439 16.4601C68.4402 16.1917 67.5687 15.7719 66.9295 15.2009C66.2903 14.6299 65.9728 13.8607 65.9771 12.8934C65.9728 12.1008 66.1838 11.4083 66.6099 10.816C67.0403 10.2236 67.6305 9.76127 68.3805 9.42889C69.1305 9.0965 69.9828 8.93031 70.9373 8.93031C71.9089 8.93031 72.7569 9.0965 73.4814 9.42889C74.2101 9.76127 74.7768 10.2236 75.1816 10.816C75.5865 11.4083 75.7953 12.0944 75.8081 12.8742H73.1554ZM79.8063 22.2002H76.8404L81.3596 9.10929H84.9263L89.4391 22.2002H86.4732L83.1941 12.1008H83.0918L79.8063 22.2002ZM79.6209 17.0546H86.6266V19.2151H79.6209V17.0546ZM95.1808 22.2002V9.10929H104.002V11.3912H97.9485V14.5106H103.548V16.7925H97.9485V19.9182H104.027V22.2002H95.1808ZM115.305 12.382L111.872 22.2002H108.804L105.371 12.382H108.248L110.287 19.4069H110.389L112.422 12.382H115.305ZM120.856 22.392C119.846 22.392 118.977 22.1874 118.248 21.7783C117.524 21.365 116.965 20.7812 116.573 20.0269C116.181 19.2684 115.985 18.3714 115.985 17.3358C115.985 16.3259 116.181 15.4395 116.573 14.6768C116.965 13.914 117.517 13.3195 118.229 12.8934C118.945 12.4672 119.784 12.2542 120.747 12.2542C121.395 12.2542 121.998 12.3586 122.556 12.5674C123.119 12.7719 123.609 13.0809 124.026 13.4942C124.448 13.9076 124.776 14.4275 125.011 15.0539C125.245 15.676 125.362 16.4047 125.362 17.24V17.9878H117.072V16.3003H122.799C122.799 15.9083 122.714 15.561 122.544 15.2584C122.373 14.9559 122.137 14.7194 121.834 14.5489C121.536 14.3742 121.188 14.2868 120.792 14.2868C120.379 14.2868 120.012 14.3827 119.693 14.5745C119.377 14.762 119.13 15.0155 118.951 15.3351C118.772 15.6505 118.681 16.002 118.676 16.3898V17.9942C118.676 18.48 118.766 18.8998 118.945 19.2535C119.128 19.6072 119.386 19.8799 119.718 20.0716C120.051 20.2634 120.445 20.3593 120.901 20.3593C121.203 20.3593 121.48 20.3167 121.732 20.2314C121.983 20.1462 122.198 20.0184 122.377 19.8479C122.556 19.6775 122.693 19.4687 122.786 19.2215L125.305 19.3877C125.177 19.9928 124.915 20.5212 124.519 20.9729C124.127 21.4204 123.619 21.7698 122.997 22.0212C122.379 22.2684 121.666 22.392 120.856 22.392ZM127.139 22.2002V12.382H129.779V14.0951H129.882C130.061 13.4857 130.361 13.0255 130.783 12.7144C131.205 12.3991 131.691 12.2414 132.24 12.2414C132.377 12.2414 132.524 12.2499 132.681 12.267C132.839 12.284 132.977 12.3074 133.097 12.3373V14.7535C132.969 14.7151 132.792 14.681 132.566 14.6512C132.34 14.6214 132.134 14.6064 131.946 14.6064C131.546 14.6064 131.188 14.6938 130.872 14.8685C130.561 15.039 130.314 15.2776 130.131 15.5844C129.952 15.8912 129.862 16.2449 129.862 16.6455V22.2002H127.139ZM138.484 22.392C137.478 22.392 136.613 22.1789 135.888 21.7528C135.168 21.3224 134.614 20.7258 134.227 19.963C133.843 19.2002 133.651 18.3224 133.651 17.3295C133.651 16.3238 133.845 15.4417 134.233 14.6831C134.625 13.9204 135.181 13.3259 135.901 12.8998C136.621 12.4694 137.478 12.2542 138.471 12.2542C139.327 12.2542 140.077 12.4097 140.721 12.7208C141.364 13.0319 141.874 13.4687 142.249 14.0312C142.624 14.5937 142.83 15.2542 142.869 16.0127H140.299C140.227 15.5226 140.035 15.1285 139.724 14.8302C139.417 14.5276 139.014 14.3763 138.516 14.3763C138.094 14.3763 137.725 14.4914 137.41 14.7215C137.099 14.9474 136.856 15.2776 136.681 15.7123C136.506 16.1469 136.419 16.6732 136.419 17.2911C136.419 17.9175 136.504 18.4502 136.675 18.8891C136.849 19.328 137.094 19.6626 137.41 19.8927C137.725 20.1228 138.094 20.2378 138.516 20.2378C138.827 20.2378 139.106 20.1739 139.353 20.0461C139.604 19.9182 139.811 19.7329 139.973 19.49C140.139 19.2428 140.248 18.9466 140.299 18.6015H142.869C142.826 19.3515 142.621 20.012 142.255 20.583C141.893 21.1498 141.392 21.593 140.753 21.9126C140.114 22.2322 139.357 22.392 138.484 22.392ZM147.412 22.3856C146.785 22.3856 146.227 22.2769 145.737 22.0596C145.247 21.838 144.859 21.512 144.574 21.0816C144.292 20.6469 144.152 20.1057 144.152 19.458C144.152 18.9126 144.252 18.4545 144.452 18.0837C144.653 17.713 144.925 17.4147 145.27 17.1888C145.616 16.963 146.008 16.7925 146.447 16.6775C146.89 16.5624 147.354 16.4814 147.84 16.4346C148.411 16.3749 148.871 16.3195 149.221 16.2684C149.57 16.213 149.824 16.132 149.981 16.0255C150.139 15.9189 150.218 15.7613 150.218 15.5525V15.5141C150.218 15.1093 150.09 14.7961 149.834 14.5745C149.583 14.3529 149.225 14.2421 148.76 14.2421C148.27 14.2421 147.881 14.3508 147.591 14.5681C147.301 14.7812 147.109 15.0496 147.015 15.3735L144.497 15.1689C144.625 14.5724 144.876 14.0567 145.251 13.6221C145.626 13.1831 146.11 12.8465 146.702 12.6121C147.299 12.3735 147.989 12.2542 148.773 12.2542C149.319 12.2542 149.841 12.3181 150.339 12.4459C150.842 12.5738 151.287 12.7719 151.675 13.0404C152.067 13.3089 152.376 13.654 152.602 14.0759C152.828 14.4935 152.941 14.9942 152.941 15.578V22.2002H150.358V20.8387H150.282C150.124 21.1455 149.913 21.4161 149.649 21.6505C149.385 21.8806 149.067 22.0617 148.697 22.1938C148.326 22.3216 147.898 22.3856 147.412 22.3856ZM148.192 20.5063C148.592 20.5063 148.946 20.4275 149.253 20.2698C149.559 20.1079 149.8 19.8905 149.975 19.6178C150.15 19.3451 150.237 19.0361 150.237 18.691V17.6491C150.152 17.7045 150.035 17.7556 149.885 17.8025C149.741 17.8451 149.577 17.8856 149.393 17.9239C149.21 17.958 149.027 17.99 148.844 18.0198C148.66 18.0454 148.494 18.0688 148.345 18.0901C148.025 18.137 147.746 18.2116 147.508 18.3138C147.269 18.4161 147.084 18.5546 146.952 18.7293C146.819 18.8998 146.753 19.1128 146.753 19.3685C146.753 19.7393 146.888 20.0226 147.156 20.2187C147.429 20.4104 147.774 20.5063 148.192 20.5063ZM155.053 22.2002V12.382H157.693V14.0951H157.796C157.975 13.4857 158.275 13.0255 158.697 12.7144C159.119 12.3991 159.605 12.2414 160.154 12.2414C160.291 12.2414 160.438 12.2499 160.595 12.267C160.753 12.284 160.892 12.3074 161.011 12.3373V14.7535C160.883 14.7151 160.706 14.681 160.48 14.6512C160.254 14.6214 160.048 14.6064 159.86 14.6064C159.46 14.6064 159.102 14.6938 158.786 14.8685C158.475 15.039 158.228 15.2776 158.045 15.5844C157.866 15.8912 157.776 16.2449 157.776 16.6455V22.2002H155.053ZM166.436 22.392C165.426 22.392 164.557 22.1874 163.828 21.7783C163.104 21.365 162.545 20.7812 162.153 20.0269C161.761 19.2684 161.565 18.3714 161.565 17.3358C161.565 16.3259 161.761 15.4395 162.153 14.6768C162.545 13.914 163.097 13.3195 163.809 12.8934C164.525 12.4672 165.364 12.2542 166.327 12.2542C166.975 12.2542 167.578 12.3586 168.136 12.5674C168.699 12.7719 169.189 13.0809 169.607 13.4942C170.028 13.9076 170.357 14.4275 170.591 15.0539C170.825 15.676 170.942 16.4047 170.942 17.24V17.9878H162.652V16.3003H168.379C168.379 15.9083 168.294 15.561 168.124 15.2584C167.953 14.9559 167.717 14.7194 167.414 14.5489C167.116 14.3742 166.768 14.2868 166.372 14.2868C165.959 14.2868 165.592 14.3827 165.273 14.5745C164.957 14.762 164.71 15.0155 164.531 15.3351C164.352 15.6505 164.261 16.002 164.256 16.3898V17.9942C164.256 18.48 164.346 18.8998 164.525 19.2535C164.708 19.6072 164.966 19.8799 165.298 20.0716C165.631 20.2634 166.025 20.3593 166.481 20.3593C166.783 20.3593 167.06 20.3167 167.312 20.2314C167.563 20.1462 167.778 20.0184 167.957 19.8479C168.136 19.6775 168.273 19.4687 168.366 19.2215L170.885 19.3877C170.757 19.9928 170.495 20.5212 170.099 20.9729C169.707 21.4204 169.2 21.7698 168.577 22.0212C167.96 22.2684 167.246 22.392 166.436 22.392Z" fill="black"/>
<path d="M0 16C0 3.2 3.2 0 16 0C28.8 0 32 3.2 32 16C32 28.8 28.8 32 16 32C3.2 32 0 28.8 0 16Z" fill="url(#paint0_linear_4533_18042)"/>
<path fill-rule="evenodd" clip-rule="evenodd" d="M21.1328 7.19995C21.2388 7.19995 21.3439 7.2041 21.4477 7.21284C21.4482 7.21125 21.4491 7.20975 21.4496 7.20815C21.4491 7.20967 21.4489 7.21131 21.4484 7.21284C21.4611 7.21391 21.4737 7.21555 21.4863 7.21675C21.5226 7.22018 21.5586 7.22439 21.5945 7.22886C21.608 7.23053 21.6214 7.23212 21.6348 7.23393C21.6714 7.2389 21.7079 7.24432 21.7441 7.25034C21.7567 7.25242 21.7692 7.25439 21.7816 7.25659C21.8752 7.27309 21.9676 7.29304 22.0586 7.31636C22.0718 7.31974 22.0849 7.32338 22.0981 7.3269C22.1301 7.33549 22.162 7.34445 22.1938 7.35386C22.2097 7.35858 22.2256 7.36338 22.2414 7.36831C22.2843 7.38166 22.3269 7.39568 22.3691 7.4105L22.2957 7.61831C22.1469 8.07423 22.0664 8.56113 22.0664 9.06675C22.0664 9.99952 22.3401 10.8681 22.8117 11.5968C22.7795 11.5499 22.9047 11.754 22.8867 11.7246L22.8703 11.7027C23.0311 11.931 23.1813 12.1674 23.3191 12.4117L23.4047 12.5675L23.4055 12.5671C23.4075 12.5709 23.4093 12.5747 23.4113 12.5785C23.4172 12.5898 23.4251 12.6054 23.4266 12.6035C23.5884 12.9074 23.7169 13.1764 23.841 13.5011C23.8396 13.5026 23.8377 13.5039 23.8363 13.5054C24.1997 14.4448 24.3996 15.4656 24.3996 16.5332C24.3996 21.1723 20.6388 24.9332 15.9996 24.9332C15.9134 24.9332 15.8274 24.9314 15.7418 24.9289L15.5328 24.9332C14.8359 24.9331 14.1696 24.8041 13.5543 24.5714C11.2528 23.8722 9.37021 22.2117 8.37305 20.0574C8.36322 20.0361 8.35302 20.015 8.34336 19.9937C8.343 19.9929 8.34255 19.9922 8.34219 19.9914L8.34141 19.991C8.25987 19.8106 8.18509 19.6267 8.11641 19.4398C8.11008 19.4226 8.10388 19.4054 8.09766 19.3882C8.08598 19.3558 8.07458 19.3232 8.06329 19.2906C8.05209 19.2583 8.04089 19.2261 8.03008 19.1937C8.02516 19.1789 8.02047 19.164 8.01563 19.1492C7.99855 19.097 7.98171 19.0447 7.96563 18.9921C7.72951 18.3732 7.59961 17.7019 7.59961 17C7.59961 16.9304 7.60139 16.8611 7.60391 16.7921C7.60131 16.7062 7.59961 16.6198 7.59961 16.5332C7.59965 14.178 8.56908 12.0494 10.1305 10.5242L10.1301 10.5246C10.1396 10.5153 10.1494 10.5061 10.159 10.4968C10.1898 10.467 10.2207 10.4375 10.252 10.4082C10.2683 10.3928 10.2847 10.3776 10.3012 10.3625C10.331 10.3349 10.3608 10.3072 10.391 10.28C10.4072 10.2655 10.4235 10.2511 10.4398 10.2367C10.4745 10.2061 10.5094 10.1757 10.5445 10.1457C10.5582 10.134 10.5719 10.1225 10.5856 10.1109C10.6178 10.0836 10.6501 10.0564 10.6828 10.0296C10.7121 10.0057 10.7419 9.9825 10.7715 9.95893C10.7921 9.94254 10.8125 9.92592 10.8332 9.90972C10.8639 9.88569 10.8951 9.86222 10.9262 9.83862C10.9476 9.82239 10.9687 9.80582 10.9902 9.78979C11.0345 9.75684 11.0793 9.72462 11.1242 9.69253C11.1309 9.68776 11.1375 9.68282 11.1441 9.67808C11.2044 9.6353 11.2651 9.5931 11.3266 9.5519C12.6625 8.65597 14.2702 8.13315 15.9996 8.13315C16.7446 8.13315 17.4669 8.2304 18.1547 8.41245C18.1834 8.42005 18.212 8.42839 18.2406 8.43628C18.2723 8.44502 18.304 8.45335 18.3356 8.46245C19.0194 7.68846 20.0188 7.19999 21.1328 7.19995ZM19.1785 16.3472C17.7545 18.9599 14.9847 20.7332 11.7996 20.7332C11.629 20.7332 11.4595 20.7272 11.2914 20.7171C11.1511 20.7277 11.0094 20.7332 10.8664 20.7332C10.4847 20.7332 10.1118 20.6951 9.75157 20.6222C11.0403 22.5875 13.231 23.9074 15.7356 23.9945C18.2189 23.8884 20.1996 21.8426 20.1996 19.3332C20.1996 18.2179 19.8078 17.1941 19.1551 16.3914C19.1631 16.3768 19.1705 16.3618 19.1785 16.3472ZM13.1996 12.3332C10.6927 12.3332 8.6474 14.31 8.5375 16.7898C8.5598 17.4503 8.66807 18.089 8.85118 18.6953C8.96443 18.9853 9.1056 19.2614 9.27188 19.5199C9.76936 19.7009 10.3063 19.8 10.8664 19.8C13.4437 19.7999 15.5328 17.7104 15.5328 15.1332C15.5328 14.2047 15.2613 13.34 14.7938 12.6132C14.2963 12.4323 13.7596 12.3332 13.1996 12.3332Z" fill="white"/>
<defs>
<linearGradient id="paint0_linear_4533_18042" x1="16" y1="0" x2="16" y2="32" gradientUnits="userSpaceOnUse">
<stop stop-color="#5B7CFF"/>
<stop offset="1" stop-color="#214BF5"/>
</linearGradient>
</defs>
</svg>
