<svg width="32" height="32" viewBox="0 0 32 32" fill="none" xmlns="http://www.w3.org/2000/svg">
<path d="M0 16C0 3.2 3.2 0 16 0C28.8 0 32 3.2 32 16C32 28.8 28.8 32 16 32C3.2 32 0 28.8 0 16Z" fill="url(#paint0_linear_4533_18121)"/>
<path fill-rule="evenodd" clip-rule="evenodd" d="M21.1328 7.19995C21.2388 7.19995 21.3439 7.2041 21.4477 7.21284C21.4482 7.21125 21.4491 7.20975 21.4496 7.20815C21.4491 7.20967 21.4489 7.21131 21.4484 7.21284C21.4611 7.21391 21.4737 7.21555 21.4863 7.21675C21.5226 7.22018 21.5586 7.22439 21.5945 7.22886C21.608 7.23053 21.6214 7.23212 21.6348 7.23393C21.6714 7.2389 21.7079 7.24432 21.7441 7.25034C21.7567 7.25242 21.7692 7.25439 21.7816 7.25659C21.8752 7.27309 21.9676 7.29304 22.0586 7.31636C22.0718 7.31974 22.0849 7.32338 22.0981 7.3269C22.1301 7.33549 22.162 7.34445 22.1938 7.35386C22.2097 7.35858 22.2256 7.36338 22.2414 7.36831C22.2843 7.38166 22.3269 7.39568 22.3691 7.4105L22.2957 7.61831C22.1469 8.07423 22.0664 8.56113 22.0664 9.06675C22.0664 9.99952 22.3401 10.8681 22.8117 11.5968C22.7795 11.5499 22.9047 11.754 22.8867 11.7246L22.8703 11.7027C23.0311 11.931 23.1813 12.1674 23.3191 12.4117L23.4047 12.5675L23.4055 12.5671C23.4075 12.5709 23.4093 12.5747 23.4113 12.5785C23.4172 12.5898 23.4251 12.6054 23.4266 12.6035C23.5884 12.9074 23.7169 13.1764 23.841 13.5011C23.8396 13.5026 23.8377 13.5039 23.8363 13.5054C24.1997 14.4448 24.3996 15.4656 24.3996 16.5332C24.3996 21.1723 20.6388 24.9332 15.9996 24.9332C15.9134 24.9332 15.8274 24.9314 15.7418 24.9289L15.5328 24.9332C14.8359 24.9331 14.1696 24.8041 13.5543 24.5714C11.2528 23.8722 9.37021 22.2117 8.37305 20.0574C8.36322 20.0361 8.35302 20.015 8.34336 19.9937C8.343 19.9929 8.34255 19.9922 8.34219 19.9914L8.34141 19.991C8.25987 19.8106 8.18509 19.6267 8.11641 19.4398C8.11008 19.4226 8.10388 19.4054 8.09766 19.3882C8.08598 19.3558 8.07458 19.3232 8.06329 19.2906C8.05209 19.2583 8.04089 19.2261 8.03008 19.1937C8.02516 19.1789 8.02047 19.164 8.01563 19.1492C7.99855 19.097 7.98171 19.0447 7.96563 18.9921C7.72951 18.3732 7.59961 17.7019 7.59961 17C7.59961 16.9304 7.60139 16.8611 7.60391 16.7921C7.60131 16.7062 7.59961 16.6198 7.59961 16.5332C7.59965 14.178 8.56908 12.0494 10.1305 10.5242L10.1301 10.5246C10.1396 10.5153 10.1494 10.5061 10.159 10.4968C10.1898 10.467 10.2207 10.4375 10.252 10.4082C10.2683 10.3928 10.2847 10.3776 10.3012 10.3625C10.331 10.3349 10.3608 10.3072 10.391 10.28C10.4072 10.2655 10.4235 10.2511 10.4398 10.2367C10.4745 10.2061 10.5094 10.1757 10.5445 10.1457C10.5582 10.134 10.5719 10.1225 10.5856 10.1109C10.6178 10.0836 10.6501 10.0564 10.6828 10.0296C10.7121 10.0057 10.7419 9.9825 10.7715 9.95893C10.7921 9.94254 10.8125 9.92592 10.8332 9.90972C10.8639 9.88569 10.8951 9.86222 10.9262 9.83862C10.9476 9.82239 10.9687 9.80582 10.9902 9.78979C11.0345 9.75684 11.0793 9.72462 11.1242 9.69253C11.1309 9.68776 11.1375 9.68282 11.1441 9.67808C11.2044 9.6353 11.2651 9.5931 11.3266 9.5519C12.6625 8.65597 14.2702 8.13315 15.9996 8.13315C16.7446 8.13315 17.4669 8.2304 18.1547 8.41245C18.1834 8.42005 18.212 8.42839 18.2406 8.43628C18.2723 8.44502 18.304 8.45335 18.3356 8.46245C19.0194 7.68846 20.0188 7.19999 21.1328 7.19995ZM19.1785 16.3472C17.7545 18.9599 14.9847 20.7332 11.7996 20.7332C11.629 20.7332 11.4595 20.7272 11.2914 20.7171C11.1511 20.7277 11.0094 20.7332 10.8664 20.7332C10.4847 20.7332 10.1118 20.6951 9.75157 20.6222C11.0403 22.5875 13.231 23.9074 15.7356 23.9945C18.2189 23.8884 20.1996 21.8426 20.1996 19.3332C20.1996 18.2179 19.8078 17.1941 19.1551 16.3914C19.1631 16.3768 19.1705 16.3618 19.1785 16.3472ZM13.1996 12.3332C10.6927 12.3332 8.6474 14.31 8.5375 16.7898C8.5598 17.4503 8.66807 18.089 8.85118 18.6953C8.96443 18.9853 9.1056 19.2614 9.27188 19.5199C9.76936 19.7009 10.3063 19.8 10.8664 19.8C13.4437 19.7999 15.5328 17.7104 15.5328 15.1332C15.5328 14.2047 15.2613 13.34 14.7938 12.6132C14.2963 12.4323 13.7596 12.3332 13.1996 12.3332Z" fill="white"/>
<defs>
<linearGradient id="paint0_linear_4533_18121" x1="16" y1="0" x2="16" y2="32" gradientUnits="userSpaceOnUse">
<stop stop-color="#5B7CFF"/>
<stop offset="1" stop-color="#214BF5"/>
</linearGradient>
</defs>
</svg>
