<svg width="40" height="29" viewBox="0 0 40 29" fill="none" xmlns="http://www.w3.org/2000/svg">
<rect width="40" height="24" fill="#DC2626"/>
<path d="M32 24H40L32 29V24Z" fill="#AA1C1C"/>
<path d="M11.9834 7H13.1396L15.8584 13.6406H15.9521L18.6709 7H19.8271V15H18.9209V8.92188H18.8428L16.3428 15H15.4678L12.9678 8.92188H12.8896V15H11.9834V7ZM26.5195 8.54687H27.3789C27.3789 9.14062 27.2487 9.61198 26.9883 9.96094C26.7305 10.3099 26.2773 10.4844 25.6289 10.4844V9.82812C25.8893 9.82812 26.082 9.77474 26.207 9.66797C26.3346 9.5612 26.418 9.41146 26.457 9.21875C26.4987 9.02604 26.5195 8.80208 26.5195 8.54687ZM24.082 15.125C23.5404 15.125 23.0651 14.9961 22.6563 14.7383C22.25 14.4805 21.9323 14.1198 21.7031 13.6562C21.4766 13.1927 21.3633 12.651 21.3633 12.0312C21.3633 11.4062 21.4766 10.8607 21.7031 10.3945C21.9323 9.92839 22.25 9.56641 22.6563 9.30859C23.0651 9.05078 23.5404 8.92188 24.082 8.92188C24.6237 8.92188 25.0977 9.05078 25.5039 9.30859C25.9128 9.56641 26.2305 9.92839 26.457 10.3945C26.6862 10.8607 26.8008 11.4062 26.8008 12.0312C26.8008 12.651 26.6862 13.1927 26.457 13.6562C26.2305 14.1198 25.9128 14.4805 25.5039 14.7383C25.0977 14.9961 24.6237 15.125 24.082 15.125ZM24.082 14.2969C24.4935 14.2969 24.832 14.1914 25.0977 13.9805C25.3633 13.7695 25.5599 13.4922 25.6875 13.1484C25.8151 12.8047 25.8789 12.4323 25.8789 12.0312C25.8789 11.6302 25.8151 11.2565 25.6875 10.9102C25.5599 10.5638 25.3633 10.2839 25.0977 10.0703C24.832 9.85677 24.4935 9.75 24.082 9.75C23.6706 9.75 23.332 9.85677 23.0664 10.0703C22.8008 10.2839 22.6042 10.5638 22.4766 10.9102C22.349 11.2565 22.2852 11.6302 22.2852 12.0312C22.2852 12.4323 22.349 12.8047 22.4766 13.1484C22.6042 13.4922 22.8008 13.7695 23.0664 13.9805C23.332 14.1914 23.6706 14.2969 24.082 14.2969ZM23.6602 8.1875L24.6133 6.375H25.6914L24.4727 8.1875H23.6602ZM28.2188 15V9H29.1406V15H28.2188ZM28.6875 8C28.5078 8 28.3529 7.9388 28.2227 7.81641C28.0951 7.69401 28.0313 7.54688 28.0313 7.375C28.0313 7.20313 28.0951 7.05599 28.2227 6.93359C28.3529 6.8112 28.5078 6.75 28.6875 6.75C28.8672 6.75 29.0208 6.8112 29.1484 6.93359C29.2786 7.05599 29.3438 7.20313 29.3438 7.375C29.3438 7.54688 29.2786 7.69401 29.1484 7.81641C29.0208 7.9388 28.8672 8 28.6875 8Z" fill="white"/>
</svg>
